<svg id="svg2" xmlns="http://www.w3.org/2000/svg" viewBox="0 0 208.57 208.59"><defs><style>.cls-1{fill:#126fec;stroke:#fff;stroke-miterlimit:10;}</style></defs><title>favi</title><g id="Capa_1-2" data-name="Capa 1-2"><path class="cls-1" d="M188.17,18.36c-39.81,26-67.23,60.82-90.43,99.24-4.43-11.06-7.52-22.16-13.3-33.46C78.88,73.23,64.6,77.7,65.2,88.62S75,131.43,82.77,141.73s24.31,10.1,30.65-.69c12.15-20.71,18.8-32.88,31.83-52.33,15.52-23.16,34.83-43.33,55.16-62.28C212.48,15.2,201.28,9.81,188.17,18.36Z" transform="translate(-0.02 -2.04)"/><path class="cls-1" d="M200.16,66.62c-6-1.42-12.9,1.65-17.7,6.29a84.46,84.46,0,1,1-46.82-45,27.2,27.2,0,0,0,7.81-17.68,103.78,103.78,0,1,0,56.71,56.33Z" transform="translate(-0.02 -2.04)"/></g></svg>