<svg id="svg2" xmlns="http://www.w3.org/2000/svg" viewBox="0 0 1103.25 243.29"><defs><style>.cls-1,.cls-2,.cls-3{fill:#126fe9;}.cls-1{fill-rule:evenodd;}.cls-3{font-size:105px;stroke:#126fe9;stroke-miterlimit:10;stroke-width:8px;font-family:OpenSans-SemiBold, Open Sans;font-weight:600;letter-spacing:0em;}</style></defs><title>navbar-logo</title><g id="Capa_1-2" data-name="Capa 1-2"><path class="cls-1" d="M898.38,347.57c1.74-37.89,3.48-75.46,5.22-113.19h27.78c8.24,21.79,16.47,43.65,25,66.15,2.25-5.88,4.33-11.27,6.36-16.68,5.91-15.7,11.85-31.44,17.7-47.18.67-1.82,1.52-2.54,3.33-2.52,8.39.12,16.77.06,25.38.06,1.75,37.92,3.5,75.55,5.24,113.37H986.64q-1-27-1.94-54.18l-.44-.15L978.55,308c-3,7.88-6.12,15.74-9.1,23.65-.6,1.59-1.35,2.2-2.92,2.17q-10.21-.15-20.42,0c-1.64,0-2.26-.71-2.86-2.27-4.4-11.49-8.9-22.94-13.36-34.39A7.7,7.7,0,0,0,928,294c-.63,17.81-1.27,35.61-1.9,53.56Z" transform="translate(-3.49 -231.88)"/><path class="cls-1" d="M250.52,347.81V234.14c.92-.07,1.74-.19,2.56-.19,14.46,0,28.93-.18,43.38.09a68.94,68.94,0,0,1,16,2c14.28,3.73,22.44,14.77,22.94,31.6.46,15.4.72,30.87-.06,46.22-1,19.93-10.59,31.19-29,32.72s-37,.91-55.78,1.24m28.69-27.67c5.73,0,11.2.08,16.64,0,8.6-.16,11.74-3.72,11.78-13.41q.07-16.07,0-32.18a31.4,31.4,0,0,0-.43-4.74c-.63-4.37-3-7.52-6.78-7.78-7-.45-14.06-.12-21.2-.12Z" transform="translate(-3.49 -231.88)"/><polygon class="cls-1" points="349.31 115.49 349.31 2.48 421.95 2.48 421.95 27.99 378.15 27.99 378.15 45.2 418.42 45.2 418.42 71.02 378.11 71.02 378.11 90.08 421.98 90.08 421.98 115.49 349.31 115.49"/><polygon class="cls-1" points="1023.99 115.5 1023.99 2.48 1096.62 2.48 1096.62 27.98 1052.82 27.98 1052.82 45.2 1093.08 45.2 1093.08 71.02 1052.79 71.02 1052.79 90.09 1096.63 90.09 1096.63 115.5 1023.99 115.5"/><polygon class="cls-1" points="549.17 115.57 549.17 30.27 520.04 30.27 520.04 2.41 606.95 2.41 606.95 30.14 577.88 30.14 577.88 115.57 549.17 115.57"/><path class="cls-1" d="M444.58,318.23c5.25,1.18,10.27,2.8,15.37,3.34a198.82,198.82,0,0,0,23.4,1.11c4.21-.06,5.84-2.53,6.23-6.75.54-5.76-.55-8.69-4.86-10.05-5.61-1.79-11.42-2.73-17.09-4.28a82.9,82.9,0,0,1-12.45-4.12c-7.72-3.47-12.17-10-13.29-19.4-.94-7.84-1.3-15.7.26-23.46,2.2-11,8.82-17.15,18.16-20.05,9.9-3.06,20-3.09,30.11-2.17,7.41.67,14.76,2.27,22.1,3.47a27.06,27.06,0,0,1,3.07.91c-1.11,8.43-2.18,16.71-3.31,25.3-4.41-.78-8.63-1.86-12.89-2.19-8-.62-16-1.05-24-1-3.69,0-5.1,2-5.53,5.53-.63,5.26.36,8.74,3.71,9.92,5.11,1.8,10.42,2.84,15.61,4.34,5.55,1.6,11.18,3,16.58,5.13,6.91,2.67,11.45,8.28,11.84,16.62a145.88,145.88,0,0,1-.57,25.68c-1.63,12.45-9.54,19-19.94,21.35A88.92,88.92,0,0,1,442.52,343c-1.19-.47-2.63-.67-2.18-2.91,1.47-7.21,2.84-14.47,4.28-21.86" transform="translate(-3.49 -231.88)"/><path class="cls-1" d="M633.77,234.09h35.34c10.66,37.57,21.36,75.27,32.19,113.41h-10c-4.91,0-9.84-.24-14.74.09-2.9.2-3.94-1.08-4.51-4-.75-3.82-1.74-7.59-2.84-11.31a2.94,2.94,0,0,0-2-1.82c-11-.11-21.92-.07-33-.07-1.46,5.7-2.89,11.28-4.33,16.94H601.81c10.71-37.86,21.31-75.46,32-113.24m17.89,27.06-.47.06q-5.25,21.9-10.55,43.93h21.8c-3.63-14.85-7.21-29.42-10.78-44" transform="translate(-3.49 -231.88)"/><path class="cls-1" d="M822.39,234.09h35.34c10.66,37.57,21.35,75.27,32.19,113.42h-10c-4.91,0-9.85-.24-14.73.08-2.9.2-4-1.08-4.52-4-.75-3.82-1.74-7.59-2.84-11.31a2.88,2.88,0,0,0-2-1.82c-11-.11-21.92-.07-33-.07l-4.34,16.94h-28c10.69-37.86,21.32-75.46,31.95-113.24m17.9,27.06-.47.06q-5.3,21.92-10.55,43.94h21.79c-3.63-14.85-7.21-29.42-10.78-44" transform="translate(-3.49 -231.88)"/><path class="cls-1" d="M783.87,235.81c-4.24-.75-8.13-1.55-12-2.13-13-1.88-26-2.92-38.87.38-15,3.85-23.9,15-24.19,31.15-.28,17.1-.38,34.24.06,51.34.37,13.88,6.42,24,18.24,29a45.06,45.06,0,0,0,8.4,2.66c11.08,2.36,22.21,1.68,33.3.32,5-.61,9.85-1.64,15.1-2.53-1-9.14-1.95-17.79-2.92-26.66-1.47.21-2.47.4-3.49.49-9.88.76-19.74,1.85-29.63,2.14-6.65.2-10.21-3.7-10.35-11.1-.28-13.69-.18-27.42.06-41.12.1-5.43,2.79-8.88,7.59-9.52a77.43,77.43,0,0,1,15.22-.36c6.77.44,13.49,1.49,20.56,2.31,1-8.61,1.9-17.2,2.92-26.4" transform="translate(-3.49 -231.88)"/><path class="cls-2" d="M191.16,249.74c-39.81,26-67.23,60.82-90.43,99.24-4.43-11.06-7.52-22.16-13.3-33.46-5.56-10.91-19.84-6.44-19.24,4.48S78,362.81,85.76,373.11s24.31,10.1,30.65-.69c12.15-20.71,18.8-32.88,31.83-52.33,15.52-23.16,34.83-43.33,55.16-62.28C215.47,246.58,204.27,241.19,191.16,249.74Z" transform="translate(-3.49 -231.88)"/><path class="cls-2" d="M203.15,298c-6-1.42-12.9,1.65-17.7,6.29a84.45,84.45,0,1,1-46.82-45,27.2,27.2,0,0,0,7.81-17.68,103.77,103.77,0,1,0,56.71,56.33Z" transform="translate(-3.49 -231.88)"/></g><text class="cls-3" transform="translate(709.65 209.65) scale(1.21 1)">BUSES</text><rect class="cls-2" x="247.04" y="159.45" width="450.78" height="28.45"/><rect class="cls-2" x="457.22" y="159.45" height="14.23"/></svg>